<svg width="112" height="35" viewBox="0 0 112 35" fill="none" xmlns="http://www.w3.org/2000/svg">
<rect width="112" height="35" fill="#FE0000"/>
<path d="M91.5005 27.664C91.3245 27.736 91.1285 27.808 90.9125 27.88C90.7045 27.952 90.4845 28.008 90.2525 28.048C90.0205 28.096 89.7925 28.12 89.5685 28.12C89.2485 28.12 88.9525 28.068 88.6805 27.964C88.4165 27.852 88.2045 27.672 88.0445 27.424C87.8925 27.176 87.8165 26.848 87.8165 26.44V23.152H87.0125V21.7H87.8165V19.696H89.7365V21.7H91.0205V23.152H89.7365V25.78C89.7365 25.988 89.7885 26.14 89.8925 26.236C89.9965 26.324 90.1285 26.368 90.2885 26.368C90.4245 26.368 90.5685 26.344 90.7205 26.296C90.8805 26.248 91.0165 26.196 91.1285 26.14L91.5005 27.664Z" fill="white"/>
<path d="M84.5146 28.12C83.9786 28.12 83.4546 28.032 82.9426 27.856C82.4306 27.68 81.9986 27.42 81.6466 27.076L82.3066 25.864C82.6906 26.144 83.0626 26.356 83.4226 26.5C83.7906 26.644 84.1346 26.716 84.4546 26.716C84.7026 26.716 84.8946 26.676 85.0306 26.596C85.1666 26.516 85.2346 26.392 85.2346 26.224C85.2346 26.104 85.1946 26.012 85.1146 25.948C85.0346 25.876 84.9106 25.812 84.7426 25.756C84.5826 25.7 84.3826 25.64 84.1426 25.576C83.6626 25.416 83.2626 25.26 82.9426 25.108C82.6226 24.956 82.3826 24.772 82.2226 24.556C82.0626 24.332 81.9826 24.044 81.9826 23.692C81.9826 23.268 82.0866 22.9 82.2946 22.588C82.5106 22.268 82.8146 22.02 83.2066 21.844C83.5986 21.668 84.0666 21.58 84.6106 21.58C85.0426 21.58 85.4626 21.648 85.8706 21.784C86.2866 21.92 86.6746 22.148 87.0346 22.468L86.2906 23.668C85.9306 23.42 85.6106 23.24 85.3306 23.128C85.0506 23.016 84.7786 22.96 84.5146 22.96C84.3786 22.96 84.2546 22.976 84.1426 23.008C84.0306 23.04 83.9386 23.096 83.8666 23.176C83.8026 23.248 83.7706 23.344 83.7706 23.464C83.7706 23.584 83.8026 23.68 83.8666 23.752C83.9386 23.824 84.0466 23.888 84.1906 23.944C84.3426 23.992 84.5306 24.052 84.7546 24.124C85.2746 24.276 85.7066 24.432 86.0506 24.592C86.3946 24.744 86.6506 24.936 86.8186 25.168C86.9946 25.392 87.0826 25.692 87.0826 26.068C87.0826 26.708 86.8506 27.212 86.3866 27.58C85.9306 27.94 85.3066 28.12 84.5146 28.12Z" fill="white"/>
<path d="M79.4682 28V21.7H81.3882V28H79.4682ZM79.4682 20.98V19.24H81.3882V20.98H79.4682Z" fill="white"/>
<path d="M74.9203 21.7L76.0363 23.476L76.1563 23.704L76.2763 23.476L77.3923 21.7H79.3723L77.2603 24.832L79.4203 28H77.4403L76.2643 26.236L76.1563 26.008L76.0483 26.236L74.8723 28H72.8923L75.0523 24.868L72.9403 21.7H74.9203Z" fill="white"/>
<path d="M73.1247 26.272V28H67.1367V19.48H73.0167V21.208H69.1047V22.864H72.4647V24.46H69.1047V26.272H73.1247Z" fill="white"/>
<path d="M66.8326 27.664C66.6566 27.736 66.4606 27.808 66.2446 27.88C66.0366 27.952 65.8166 28.008 65.5846 28.048C65.3526 28.096 65.1246 28.12 64.9006 28.12C64.5806 28.12 64.2846 28.068 64.0126 27.964C63.7486 27.852 63.5366 27.672 63.3766 27.424C63.2246 27.176 63.1486 26.848 63.1486 26.44V23.152H62.3446V21.7H63.1486V19.696H65.0686V21.7H66.3526V23.152H65.0686V25.78C65.0686 25.988 65.1206 26.14 65.2246 26.236C65.3286 26.324 65.4606 26.368 65.6206 26.368C65.7566 26.368 65.9006 26.344 66.0526 26.296C66.2126 26.248 66.3486 26.196 66.4606 26.14L66.8326 27.664Z" fill="white"/>
<path d="M59.1221 28.12C58.5861 28.12 58.1061 28.032 57.6821 27.856C57.2661 27.68 56.9141 27.44 56.6261 27.136C56.3381 26.832 56.1181 26.484 55.9661 26.092C55.8221 25.7 55.7501 25.288 55.7501 24.856C55.7501 24.416 55.8221 24 55.9661 23.608C56.1181 23.216 56.3381 22.868 56.6261 22.564C56.9141 22.26 57.2661 22.02 57.6821 21.844C58.1061 21.668 58.5861 21.58 59.1221 21.58C59.6581 21.58 60.1341 21.668 60.5501 21.844C60.9661 22.02 61.3181 22.26 61.6061 22.564C61.8941 22.868 62.1141 23.216 62.2661 23.608C62.4181 24 62.4941 24.416 62.4941 24.856C62.4941 25.288 62.4181 25.7 62.2661 26.092C62.1141 26.484 61.8941 26.832 61.6061 27.136C61.3181 27.44 60.9661 27.68 60.5501 27.856C60.1341 28.032 59.6581 28.12 59.1221 28.12ZM57.7181 24.856C57.7181 25.184 57.7781 25.472 57.8981 25.72C58.0261 25.968 58.1941 26.16 58.4021 26.296C58.6101 26.432 58.8501 26.5 59.1221 26.5C59.3861 26.5 59.6221 26.432 59.8301 26.296C60.0461 26.152 60.2141 25.956 60.3341 25.708C60.4541 25.46 60.5141 25.176 60.5141 24.856C60.5141 24.528 60.4541 24.24 60.3341 23.992C60.2141 23.744 60.0461 23.552 59.8301 23.416C59.6221 23.28 59.3861 23.212 59.1221 23.212C58.8501 23.212 58.6101 23.28 58.4021 23.416C58.1941 23.552 58.0261 23.744 57.8981 23.992C57.7781 24.24 57.7181 24.528 57.7181 24.856Z" fill="white"/>
<path d="M49.8461 23.128V28H47.8781V19.48H49.4381L53.3861 24.496V19.48H55.3541V28H53.7461L49.8461 23.128Z" fill="white"/>
<path d="M44.8396 28.12C44.3036 28.12 43.7796 28.032 43.2676 27.856C42.7556 27.68 42.3236 27.42 41.9716 27.076L42.6316 25.864C43.0156 26.144 43.3876 26.356 43.7476 26.5C44.1156 26.644 44.4596 26.716 44.7796 26.716C45.0276 26.716 45.2196 26.676 45.3556 26.596C45.4916 26.516 45.5596 26.392 45.5596 26.224C45.5596 26.104 45.5196 26.012 45.4396 25.948C45.3596 25.876 45.2356 25.812 45.0676 25.756C44.9076 25.7 44.7076 25.64 44.4676 25.576C43.9876 25.416 43.5876 25.26 43.2676 25.108C42.9476 24.956 42.7076 24.772 42.5476 24.556C42.3876 24.332 42.3076 24.044 42.3076 23.692C42.3076 23.268 42.4116 22.9 42.6196 22.588C42.8356 22.268 43.1396 22.02 43.5316 21.844C43.9236 21.668 44.3916 21.58 44.9356 21.58C45.3676 21.58 45.7876 21.648 46.1956 21.784C46.6116 21.92 46.9996 22.148 47.3596 22.468L46.6156 23.668C46.2556 23.42 45.9356 23.24 45.6556 23.128C45.3756 23.016 45.1036 22.96 44.8396 22.96C44.7036 22.96 44.5796 22.976 44.4676 23.008C44.3556 23.04 44.2636 23.096 44.1916 23.176C44.1276 23.248 44.0956 23.344 44.0956 23.464C44.0956 23.584 44.1276 23.68 44.1916 23.752C44.2636 23.824 44.3716 23.888 44.5156 23.944C44.6676 23.992 44.8556 24.052 45.0796 24.124C45.5996 24.276 46.0316 24.432 46.3756 24.592C46.7196 24.744 46.9756 24.936 47.1436 25.168C47.3196 25.392 47.4076 25.692 47.4076 26.068C47.4076 26.708 47.1756 27.212 46.7116 27.58C46.2556 27.94 45.6316 28.12 44.8396 28.12Z" fill="white"/>
<path d="M38.7974 28.12C38.2614 28.12 37.7854 28.036 37.3694 27.868C36.9534 27.692 36.5974 27.456 36.3014 27.16C36.0134 26.864 35.7934 26.524 35.6414 26.14C35.4894 25.748 35.4134 25.34 35.4134 24.916C35.4134 24.308 35.5454 23.756 35.8094 23.26C36.0814 22.756 36.4694 22.352 36.9734 22.048C37.4774 21.736 38.0854 21.58 38.7974 21.58C39.5094 21.58 40.1134 21.732 40.6094 22.036C41.1134 22.34 41.4974 22.74 41.7614 23.236C42.0254 23.724 42.1574 24.256 42.1574 24.832C42.1574 24.944 42.1494 25.056 42.1334 25.168C42.1254 25.272 42.1174 25.364 42.1094 25.444H37.4534C37.4774 25.724 37.5534 25.96 37.6814 26.152C37.8174 26.344 37.9894 26.492 38.1974 26.596C38.4054 26.692 38.6254 26.74 38.8574 26.74C39.1454 26.74 39.4134 26.672 39.6614 26.536C39.9174 26.4 40.0934 26.216 40.1894 25.984L41.8214 26.44C41.6614 26.768 41.4334 27.06 41.1374 27.316C40.8494 27.564 40.5054 27.76 40.1054 27.904C39.7134 28.048 39.2774 28.12 38.7974 28.12ZM37.4054 24.268H40.1414C40.1094 24.004 40.0334 23.776 39.9134 23.584C39.7934 23.384 39.6334 23.232 39.4334 23.128C39.2334 23.016 39.0134 22.96 38.7734 22.96C38.5254 22.96 38.3014 23.016 38.1014 23.128C37.9094 23.232 37.7534 23.384 37.6334 23.584C37.5134 23.776 37.4374 24.004 37.4054 24.268Z" fill="white"/>
<path d="M32.0612 28.12C31.5252 28.12 31.0452 28.032 30.6212 27.856C30.2052 27.68 29.8532 27.44 29.5652 27.136C29.2772 26.832 29.0572 26.484 28.9052 26.092C28.7612 25.7 28.6892 25.288 28.6892 24.856C28.6892 24.416 28.7612 24 28.9052 23.608C29.0572 23.216 29.2772 22.868 29.5652 22.564C29.8532 22.26 30.2052 22.02 30.6212 21.844C31.0452 21.668 31.5252 21.58 32.0612 21.58C32.5972 21.58 33.0732 21.668 33.4892 21.844C33.9052 22.02 34.2572 22.26 34.5452 22.564C34.8332 22.868 35.0532 23.216 35.2052 23.608C35.3572 24 35.4332 24.416 35.4332 24.856C35.4332 25.288 35.3572 25.7 35.2052 26.092C35.0532 26.484 34.8332 26.832 34.5452 27.136C34.2572 27.44 33.9052 27.68 33.4892 27.856C33.0732 28.032 32.5972 28.12 32.0612 28.12ZM30.6572 24.856C30.6572 25.184 30.7172 25.472 30.8372 25.72C30.9652 25.968 31.1332 26.16 31.3412 26.296C31.5492 26.432 31.7892 26.5 32.0612 26.5C32.3252 26.5 32.5612 26.432 32.7692 26.296C32.9852 26.152 33.1532 25.956 33.2732 25.708C33.3932 25.46 33.4532 25.176 33.4532 24.856C33.4532 24.528 33.3932 24.24 33.2732 23.992C33.1532 23.744 32.9852 23.552 32.7692 23.416C32.5612 23.28 32.3252 23.212 32.0612 23.212C31.7892 23.212 31.5492 23.28 31.3412 23.416C31.1332 23.552 30.9652 23.744 30.8372 23.992C30.7172 24.24 30.6572 24.528 30.6572 24.856Z" fill="white"/>
<path d="M21.2273 28V19.48H24.4073C25.3433 19.48 26.1233 19.672 26.7473 20.056C27.3793 20.432 27.8553 20.944 28.1753 21.592C28.4953 22.232 28.6553 22.944 28.6553 23.728C28.6553 24.592 28.4793 25.344 28.1273 25.984C27.7753 26.624 27.2793 27.12 26.6393 27.472C26.0073 27.824 25.2633 28 24.4073 28H21.2273ZM26.6513 23.728C26.6513 23.232 26.5633 22.796 26.3873 22.42C26.2113 22.036 25.9553 21.74 25.6193 21.532C25.2833 21.316 24.8793 21.208 24.4073 21.208H23.1953V26.272H24.4073C24.8873 26.272 25.2913 26.164 25.6193 25.948C25.9553 25.724 26.2113 25.42 26.3873 25.036C26.5633 24.644 26.6513 24.208 26.6513 23.728Z" fill="white"/>
<path d="M100.214 7.7H102.038L99.4342 14H97.8502L96.8902 11.432L95.9302 14H94.3462L91.7422 7.7H93.5542L95.2462 12.188L95.8462 10.436L94.7182 7.7H96.2902L96.8902 9.596L97.4902 7.7H99.0502L97.9342 10.436L98.5342 12.188L100.214 7.7Z" fill="white"/>
<path d="M89.0075 14.12C88.4715 14.12 87.9955 14.036 87.5795 13.868C87.1635 13.692 86.8075 13.456 86.5115 13.16C86.2235 12.864 86.0035 12.524 85.8515 12.14C85.6995 11.748 85.6235 11.34 85.6235 10.916C85.6235 10.308 85.7555 9.756 86.0195 9.26C86.2915 8.756 86.6795 8.352 87.1835 8.048C87.6875 7.736 88.2955 7.58 89.0075 7.58C89.7195 7.58 90.3235 7.732 90.8195 8.036C91.3235 8.34 91.7075 8.74 91.9715 9.236C92.2355 9.724 92.3675 10.256 92.3675 10.832C92.3675 10.944 92.3595 11.056 92.3435 11.168C92.3355 11.272 92.3275 11.364 92.3195 11.444H87.6635C87.6875 11.724 87.7635 11.96 87.8915 12.152C88.0275 12.344 88.1995 12.492 88.4075 12.596C88.6155 12.692 88.8355 12.74 89.0675 12.74C89.3555 12.74 89.6235 12.672 89.8715 12.536C90.1275 12.4 90.3035 12.216 90.3995 11.984L92.0315 12.44C91.8715 12.768 91.6435 13.06 91.3475 13.316C91.0595 13.564 90.7155 13.76 90.3155 13.904C89.9235 14.048 89.4875 14.12 89.0075 14.12ZM87.6155 10.268H90.3515C90.3195 10.004 90.2435 9.776 90.1235 9.584C90.0035 9.384 89.8435 9.232 89.6435 9.128C89.4435 9.016 89.2235 8.96 88.9835 8.96C88.7355 8.96 88.5115 9.016 88.3115 9.128C88.1195 9.232 87.9635 9.384 87.8435 9.584C87.7235 9.776 87.6475 10.004 87.6155 10.268Z" fill="white"/>
<path d="M83.3612 14V7.7H85.2812V14H83.3612ZM83.3612 6.98V5.24H85.2812V6.98H83.3612Z" fill="white"/>
<path d="M78.9252 14L76.6932 7.7H78.6732L80.0532 12.272L81.4332 7.7H83.2332L81.0132 14H78.9252Z" fill="white"/>
<path d="M73.8505 14.12C73.3145 14.12 72.8385 14.036 72.4225 13.868C72.0065 13.692 71.6505 13.456 71.3545 13.16C71.0665 12.864 70.8465 12.524 70.6945 12.14C70.5425 11.748 70.4665 11.34 70.4665 10.916C70.4665 10.308 70.5985 9.756 70.8625 9.26C71.1345 8.756 71.5225 8.352 72.0265 8.048C72.5305 7.736 73.1385 7.58 73.8505 7.58C74.5625 7.58 75.1665 7.732 75.6625 8.036C76.1665 8.34 76.5505 8.74 76.8145 9.236C77.0785 9.724 77.2105 10.256 77.2105 10.832C77.2105 10.944 77.2025 11.056 77.1865 11.168C77.1785 11.272 77.1705 11.364 77.1625 11.444H72.5065C72.5305 11.724 72.6065 11.96 72.7345 12.152C72.8705 12.344 73.0425 12.492 73.2505 12.596C73.4585 12.692 73.6785 12.74 73.9105 12.74C74.1985 12.74 74.4665 12.672 74.7145 12.536C74.9705 12.4 75.1465 12.216 75.2425 11.984L76.8745 12.44C76.7145 12.768 76.4865 13.06 76.1905 13.316C75.9025 13.564 75.5585 13.76 75.1585 13.904C74.7665 14.048 74.3305 14.12 73.8505 14.12ZM72.4585 10.268H75.1945C75.1625 10.004 75.0865 9.776 74.9665 9.584C74.8465 9.384 74.6865 9.232 74.4865 9.128C74.2865 9.016 74.0665 8.96 73.8265 8.96C73.5785 8.96 73.3545 9.016 73.1545 9.128C72.9625 9.232 72.8065 9.384 72.6865 9.584C72.5665 9.776 72.4905 10.004 72.4585 10.268Z" fill="white"/>
<path d="M63.7664 14V5.48H67.6064C68.0064 5.48 68.3744 5.564 68.7104 5.732C69.0544 5.892 69.3504 6.112 69.5984 6.392C69.8464 6.664 70.0384 6.972 70.1744 7.316C70.3184 7.66 70.3904 8.008 70.3904 8.36C70.3904 8.712 70.3344 9.048 70.2224 9.368C70.1104 9.68 69.9504 9.964 69.7424 10.22C69.5344 10.468 69.2864 10.672 68.9984 10.832L70.8704 14H68.6984L67.0664 11.252H65.7344V14H63.7664ZM65.7344 9.536H67.5344C67.6944 9.536 67.8344 9.488 67.9544 9.392C68.0824 9.288 68.1864 9.148 68.2664 8.972C68.3464 8.796 68.3864 8.592 68.3864 8.36C68.3864 8.128 68.3384 7.928 68.2424 7.76C68.1544 7.584 68.0424 7.448 67.9064 7.352C67.7704 7.256 67.6264 7.208 67.4744 7.208H65.7344V9.536Z" fill="white"/>
<path d="M60.0505 14.12C59.5145 14.12 59.0385 14.036 58.6225 13.868C58.2065 13.692 57.8505 13.456 57.5545 13.16C57.2665 12.864 57.0465 12.524 56.8945 12.14C56.7425 11.748 56.6665 11.34 56.6665 10.916C56.6665 10.308 56.7985 9.756 57.0625 9.26C57.3345 8.756 57.7225 8.352 58.2265 8.048C58.7305 7.736 59.3385 7.58 60.0505 7.58C60.7625 7.58 61.3665 7.732 61.8625 8.036C62.3665 8.34 62.7505 8.74 63.0145 9.236C63.2785 9.724 63.4105 10.256 63.4105 10.832C63.4105 10.944 63.4025 11.056 63.3865 11.168C63.3785 11.272 63.3705 11.364 63.3625 11.444H58.7065C58.7305 11.724 58.8065 11.96 58.9345 12.152C59.0705 12.344 59.2425 12.492 59.4505 12.596C59.6585 12.692 59.8785 12.74 60.1105 12.74C60.3985 12.74 60.6665 12.672 60.9145 12.536C61.1705 12.4 61.3465 12.216 61.4425 11.984L63.0745 12.44C62.9145 12.768 62.6865 13.06 62.3905 13.316C62.1025 13.564 61.7585 13.76 61.3585 13.904C60.9665 14.048 60.5305 14.12 60.0505 14.12ZM58.6585 10.268H61.3945C61.3625 10.004 61.2865 9.776 61.1665 9.584C61.0465 9.384 60.8865 9.232 60.6865 9.128C60.4865 9.016 60.2665 8.96 60.0265 8.96C59.7785 8.96 59.5545 9.016 59.3545 9.128C59.1625 9.232 59.0065 9.384 58.8865 9.584C58.7665 9.776 58.6905 10.004 58.6585 10.268Z" fill="white"/>
<path d="M54.4041 14V7.7H56.3241V14H54.4041ZM54.4041 6.98V5.24H56.3241V6.98H54.4041Z" fill="white"/>
<path d="M49.9682 14L47.7362 7.7H49.7162L51.0962 12.272L52.4762 7.7H54.2762L52.0562 14H49.9682Z" fill="white"/>
<path d="M44.8229 14.12C44.2869 14.12 43.8069 14.032 43.3829 13.856C42.9669 13.68 42.6149 13.44 42.3269 13.136C42.0389 12.832 41.8189 12.484 41.6669 12.092C41.5229 11.7 41.4509 11.288 41.4509 10.856C41.4509 10.416 41.5229 10 41.6669 9.608C41.8189 9.216 42.0389 8.868 42.3269 8.564C42.6149 8.26 42.9669 8.02 43.3829 7.844C43.8069 7.668 44.2869 7.58 44.8229 7.58C45.3589 7.58 45.8349 7.668 46.2509 7.844C46.6669 8.02 47.0189 8.26 47.3069 8.564C47.5949 8.868 47.8149 9.216 47.9669 9.608C48.1189 10 48.1949 10.416 48.1949 10.856C48.1949 11.288 48.1189 11.7 47.9669 12.092C47.8149 12.484 47.5949 12.832 47.3069 13.136C47.0189 13.44 46.6669 13.68 46.2509 13.856C45.8349 14.032 45.3589 14.12 44.8229 14.12ZM43.4189 10.856C43.4189 11.184 43.4789 11.472 43.5989 11.72C43.7269 11.968 43.8949 12.16 44.1029 12.296C44.3109 12.432 44.5509 12.5 44.8229 12.5C45.0869 12.5 45.3229 12.432 45.5309 12.296C45.7469 12.152 45.9149 11.956 46.0349 11.708C46.1549 11.46 46.2149 11.176 46.2149 10.856C46.2149 10.528 46.1549 10.24 46.0349 9.992C45.9149 9.744 45.7469 9.552 45.5309 9.416C45.3229 9.28 45.0869 9.212 44.8229 9.212C44.5509 9.212 44.3109 9.28 44.1029 9.416C43.8949 9.552 43.7269 9.744 43.5989 9.992C43.4789 10.24 43.4189 10.528 43.4189 10.856Z" fill="white"/>
<path d="M39.0801 14V8.924L37.2441 12.62H36.1641L34.3281 8.924V14H32.3601V5.48H34.4961L36.7041 9.932L38.9241 5.48H41.0481V14H39.0801Z" fill="white"/>
<path d="M29.3216 14.12C28.7856 14.12 28.2616 14.032 27.7496 13.856C27.2376 13.68 26.8056 13.42 26.4536 13.076L27.1136 11.864C27.4976 12.144 27.8696 12.356 28.2296 12.5C28.5976 12.644 28.9416 12.716 29.2616 12.716C29.5096 12.716 29.7016 12.676 29.8376 12.596C29.9736 12.516 30.0416 12.392 30.0416 12.224C30.0416 12.104 30.0016 12.012 29.9216 11.948C29.8416 11.876 29.7176 11.812 29.5496 11.756C29.3896 11.7 29.1896 11.64 28.9496 11.576C28.4696 11.416 28.0696 11.26 27.7496 11.108C27.4296 10.956 27.1896 10.772 27.0296 10.556C26.8696 10.332 26.7896 10.044 26.7896 9.692C26.7896 9.268 26.8936 8.9 27.1016 8.588C27.3176 8.268 27.6216 8.02 28.0136 7.844C28.4056 7.668 28.8736 7.58 29.4176 7.58C29.8496 7.58 30.2696 7.648 30.6776 7.784C31.0936 7.92 31.4816 8.148 31.8416 8.468L31.0976 9.668C30.7376 9.42 30.4176 9.24 30.1376 9.128C29.8576 9.016 29.5856 8.96 29.3216 8.96C29.1856 8.96 29.0616 8.976 28.9496 9.008C28.8376 9.04 28.7456 9.096 28.6736 9.176C28.6096 9.248 28.5776 9.344 28.5776 9.464C28.5776 9.584 28.6096 9.68 28.6736 9.752C28.7456 9.824 28.8536 9.888 28.9976 9.944C29.1496 9.992 29.3376 10.052 29.5616 10.124C30.0816 10.276 30.5136 10.432 30.8576 10.592C31.2016 10.744 31.4576 10.936 31.6256 11.168C31.8016 11.392 31.8896 11.692 31.8896 12.068C31.8896 12.708 31.6576 13.212 31.1936 13.58C30.7376 13.94 30.1136 14.12 29.3216 14.12Z" fill="white"/>
<path d="M24.2752 14V7.7H26.1952V14H24.2752ZM24.2752 6.98V5.24H26.1952V6.98H24.2752Z" fill="white"/>
<path d="M23.5996 14H21.6796V10.46C21.6796 10.052 21.5956 9.752 21.4276 9.56C21.2676 9.368 21.0516 9.272 20.7796 9.272C20.6356 9.272 20.4716 9.32 20.2876 9.416C20.1116 9.504 19.9476 9.632 19.7956 9.8C19.6436 9.968 19.5276 10.164 19.4476 10.388V14H17.5276V5.24H19.4476V8.756C19.6796 8.38 19.9836 8.092 20.3596 7.892C20.7436 7.684 21.1636 7.58 21.6196 7.58C22.0516 7.58 22.3956 7.652 22.6516 7.796C22.9156 7.94 23.1156 8.132 23.2516 8.372C23.3876 8.604 23.4796 8.86 23.5276 9.14C23.5756 9.42 23.5996 9.696 23.5996 9.968V14Z" fill="white"/>
<path d="M17.3224 7.208H14.7304V14H12.7624V7.208H10.1584V5.48H17.3224V7.208Z" fill="white"/>
</svg>
