<svg width="64" height="32" viewBox="0 0 64 32" fill="none" xmlns="http://www.w3.org/2000/svg">
<rect width="64" height="32" fill="#F6C519"/>
<path d="M51.8848 8.18945H58.7402V11.3535H55.9961V14.3516H58.5645V17.3594H55.9961V20.8359H59.0137V24H51.8848V8.18945Z" fill="black"/>
<path d="M50.2246 8.18945V24H46.6211L44.4824 16.8125V24H41.0449V8.18945H44.4824L46.7871 15.3086V8.18945H50.2246Z" fill="black"/>
<path d="M29.9902 8.18945H33.0664C35.0521 8.18945 36.3932 8.2806 37.0898 8.46289C37.793 8.64518 38.3268 8.94466 38.6914 9.36133C39.056 9.77799 39.2839 10.2435 39.375 10.7578C39.4661 11.2656 39.5117 12.2682 39.5117 13.7656V19.3027C39.5117 20.722 39.4434 21.6725 39.3066 22.1543C39.1764 22.6296 38.9453 23.0039 38.6133 23.2773C38.2812 23.5443 37.8711 23.7331 37.3828 23.8438C36.8945 23.9479 36.1589 24 35.1758 24H29.9902V8.18945ZM34.1016 10.8945V21.2949C34.694 21.2949 35.0586 21.1777 35.1953 20.9434C35.332 20.7025 35.4004 20.0547 35.4004 19V12.8574C35.4004 12.1413 35.3776 11.6823 35.332 11.4805C35.2865 11.2786 35.1823 11.1322 35.0195 11.041C34.8568 10.9434 34.5508 10.8945 34.1016 10.8945Z" fill="black"/>
<path d="M28.3398 8.18945V24H24.7461V13.3262L23.3105 24H20.7617L19.248 13.5703V24H15.6543V8.18945H20.9766C21.1328 9.13997 21.2988 10.2598 21.4746 11.5488L22.041 15.5723L22.9785 8.18945H28.3398Z" fill="black"/>
<path d="M14.7168 8.18945V11.3535H12.2754V24H8.16406V11.3535H5.73242V8.18945H14.7168Z" fill="black"/>
</svg>
